<mxfile host="app.diagrams.net" modified="2024-03-24T09:37:31.871Z" agent="Mozilla/5.0 (Windows NT 10.0; Win64; x64) AppleWebKit/537.36 (KHTML, like Gecko) Chrome/123.0.0.0 Safari/537.36" etag="goBfYr-vM6SDpLisW_tI" version="24.0.7" type="device">
  <diagram name="Page-1" id="kGFZ8DEzGSvj911HBqV8">
    <mxGraphModel dx="913" dy="544" grid="1" gridSize="10" guides="1" tooltips="1" connect="1" arrows="1" fold="1" page="1" pageScale="1" pageWidth="1169" pageHeight="827" math="0" shadow="0">
      <root>
        <mxCell id="0" />
        <mxCell id="1" parent="0" />
        <mxCell id="ZalriifZYH_jLImGx8Wc-1" value="Data Layer" style="rounded=0;whiteSpace=wrap;html=1;fontFamily=Sarabun;fontSource=https%3A%2F%2Ffonts.googleapis.com%2Fcss%3Ffamily%3DSarabun;labelBackgroundColor=none;fillColor=#FAF5F0;strokeColor=#220607;fontColor=#220607;strokeWidth=2;" vertex="1" parent="1">
          <mxGeometry x="240" y="120" width="80" height="360" as="geometry" />
        </mxCell>
        <mxCell id="ZalriifZYH_jLImGx8Wc-2" value="" style="strokeWidth=2;html=1;shape=mxgraph.flowchart.database;whiteSpace=wrap;rounded=0;strokeColor=#FAF5F0;align=center;verticalAlign=middle;fontFamily=Sarabun;fontSource=https%3A%2F%2Ffonts.googleapis.com%2Fcss%3Ffamily%3DSarabun;fontSize=12;fontColor=#220607;labelBackgroundColor=none;fillColor=#006664;" vertex="1" parent="1">
          <mxGeometry x="135" y="130" width="60" height="60" as="geometry" />
        </mxCell>
        <mxCell id="ZalriifZYH_jLImGx8Wc-3" value="Ingredients" style="text;html=1;align=center;verticalAlign=middle;resizable=0;points=[];autosize=1;strokeColor=none;fillColor=none;fontFamily=Sarabun;fontSource=https%3A%2F%2Ffonts.googleapis.com%2Fcss%3Ffamily%3DSarabun;fontSize=12;fontColor=#220607;labelBackgroundColor=none;" vertex="1" parent="1">
          <mxGeometry x="125" y="190" width="80" height="30" as="geometry" />
        </mxCell>
        <mxCell id="ZalriifZYH_jLImGx8Wc-4" value="" style="strokeWidth=2;html=1;shape=mxgraph.flowchart.database;whiteSpace=wrap;rounded=0;strokeColor=#FAF5F0;align=center;verticalAlign=middle;fontFamily=Sarabun;fontSource=https%3A%2F%2Ffonts.googleapis.com%2Fcss%3Ffamily%3DSarabun;fontSize=12;fontColor=#220607;labelBackgroundColor=none;fillColor=#006664;" vertex="1" parent="1">
          <mxGeometry x="135" y="220" width="60" height="60" as="geometry" />
        </mxCell>
        <mxCell id="ZalriifZYH_jLImGx8Wc-5" value="Dish Names" style="text;html=1;align=center;verticalAlign=middle;resizable=0;points=[];autosize=1;strokeColor=none;fillColor=none;fontFamily=Sarabun;fontSource=https%3A%2F%2Ffonts.googleapis.com%2Fcss%3Ffamily%3DSarabun;fontSize=12;fontColor=#220607;labelBackgroundColor=none;" vertex="1" parent="1">
          <mxGeometry x="125" y="280" width="80" height="30" as="geometry" />
        </mxCell>
        <mxCell id="ZalriifZYH_jLImGx8Wc-6" value="" style="strokeWidth=2;html=1;shape=mxgraph.flowchart.database;whiteSpace=wrap;rounded=0;strokeColor=#FAF5F0;align=center;verticalAlign=middle;fontFamily=Sarabun;fontSource=https%3A%2F%2Ffonts.googleapis.com%2Fcss%3Ffamily%3DSarabun;fontSize=12;fontColor=#220607;labelBackgroundColor=none;fillColor=#006664;" vertex="1" parent="1">
          <mxGeometry x="135" y="310" width="60" height="60" as="geometry" />
        </mxCell>
        <mxCell id="ZalriifZYH_jLImGx8Wc-7" value="Stalls" style="text;html=1;align=center;verticalAlign=middle;resizable=0;points=[];autosize=1;strokeColor=none;fillColor=none;fontFamily=Sarabun;fontSource=https%3A%2F%2Ffonts.googleapis.com%2Fcss%3Ffamily%3DSarabun;fontSize=12;fontColor=#220607;labelBackgroundColor=none;" vertex="1" parent="1">
          <mxGeometry x="140" y="370" width="50" height="30" as="geometry" />
        </mxCell>
        <mxCell id="ZalriifZYH_jLImGx8Wc-8" value="" style="strokeWidth=2;html=1;shape=mxgraph.flowchart.annotation_2;align=left;labelPosition=right;pointerEvents=1;rounded=0;strokeColor=#220607;verticalAlign=middle;fontFamily=Sarabun;fontSource=https%3A%2F%2Ffonts.googleapis.com%2Fcss%3Ffamily%3DSarabun;fontSize=12;fontColor=#220607;labelBackgroundColor=none;fillColor=#FAF5F0;flipH=1;" vertex="1" parent="1">
          <mxGeometry x="205" y="120" width="30" height="360" as="geometry" />
        </mxCell>
        <mxCell id="ZalriifZYH_jLImGx8Wc-10" value="Map" style="verticalLabelPosition=bottom;verticalAlign=top;html=1;strokeWidth=2;shape=mxgraph.arrows2.arrow;dy=0.6;dx=40;notch=0;rounded=0;strokeColor=#220607;align=center;fontFamily=Sarabun;fontSource=https%3A%2F%2Ffonts.googleapis.com%2Fcss%3Ffamily%3DSarabun;fontSize=12;fontColor=#220607;labelBackgroundColor=none;fillColor=#FAF5F0;" vertex="1" parent="1">
          <mxGeometry x="330" y="265" width="100" height="70" as="geometry" />
        </mxCell>
        <mxCell id="ZalriifZYH_jLImGx8Wc-11" value="Data Cleaning +&lt;div&gt;Preprocess&lt;/div&gt;" style="rounded=0;whiteSpace=wrap;html=1;fontFamily=Sarabun;fontSource=https%3A%2F%2Ffonts.googleapis.com%2Fcss%3Ffamily%3DSarabun;labelBackgroundColor=none;fillColor=#FAF5F0;strokeColor=#220607;fontColor=#220607;strokeWidth=2;fontStyle=1" vertex="1" parent="1">
          <mxGeometry x="440" y="280" width="120" height="40" as="geometry" />
        </mxCell>
        <mxCell id="ZalriifZYH_jLImGx8Wc-12" value="" style="strokeWidth=2;html=1;shape=mxgraph.flowchart.annotation_2;align=left;labelPosition=right;pointerEvents=1;rounded=0;strokeColor=#220607;verticalAlign=middle;fontFamily=Sarabun;fontSource=https%3A%2F%2Ffonts.googleapis.com%2Fcss%3Ffamily%3DSarabun;fontSize=12;fontColor=#220607;labelBackgroundColor=none;fillColor=#FAF5F0;" vertex="1" parent="1">
          <mxGeometry x="566" y="240" width="30" height="120" as="geometry" />
        </mxCell>
        <mxCell id="ZalriifZYH_jLImGx8Wc-13" value="" style="strokeWidth=2;html=1;shape=mxgraph.flowchart.database;whiteSpace=wrap;rounded=0;strokeColor=#FAF5F0;align=center;verticalAlign=middle;fontFamily=Sarabun;fontSource=https%3A%2F%2Ffonts.googleapis.com%2Fcss%3Ffamily%3DSarabun;fontSize=12;fontColor=#220607;labelBackgroundColor=none;fillColor=#006664;" vertex="1" parent="1">
          <mxGeometry x="135" y="400" width="60" height="60" as="geometry" />
        </mxCell>
        <mxCell id="ZalriifZYH_jLImGx8Wc-14" value="Scoring" style="text;html=1;align=center;verticalAlign=middle;resizable=0;points=[];autosize=1;strokeColor=none;fillColor=none;fontFamily=Sarabun;fontSource=https%3A%2F%2Ffonts.googleapis.com%2Fcss%3Ffamily%3DSarabun;fontSize=12;fontColor=#220607;labelBackgroundColor=none;" vertex="1" parent="1">
          <mxGeometry x="135" y="460" width="60" height="30" as="geometry" />
        </mxCell>
        <mxCell id="ZalriifZYH_jLImGx8Wc-15" value="&lt;font style=&quot;font-size: 18px;&quot;&gt;kNN&lt;/font&gt;" style="rounded=0;whiteSpace=wrap;html=1;fontFamily=Sarabun;fontSource=https%3A%2F%2Ffonts.googleapis.com%2Fcss%3Ffamily%3DSarabun;labelBackgroundColor=none;fillColor=#FAF5F0;strokeColor=#220607;fontColor=#220607;strokeWidth=2;fontStyle=1;fontSize=18;" vertex="1" parent="1">
          <mxGeometry x="610" y="210" width="120" height="70" as="geometry" />
        </mxCell>
        <mxCell id="ZalriifZYH_jLImGx8Wc-16" value="&lt;font style=&quot;font-size: 18px;&quot;&gt;GRU-RNN&lt;/font&gt;" style="rounded=0;whiteSpace=wrap;html=1;fontFamily=Sarabun;fontSource=https%3A%2F%2Ffonts.googleapis.com%2Fcss%3Ffamily%3DSarabun;labelBackgroundColor=none;fillColor=#FAF5F0;strokeColor=#220607;fontColor=#220607;strokeWidth=2;fontStyle=1;fontSize=18;" vertex="1" parent="1">
          <mxGeometry x="610" y="320" width="120" height="70" as="geometry" />
        </mxCell>
        <mxCell id="ZalriifZYH_jLImGx8Wc-20" value="Hybrid kNN-GRU" style="swimlane;whiteSpace=wrap;html=1;rounded=0;strokeColor=#220607;align=center;verticalAlign=middle;fontFamily=Sarabun;fontSource=https%3A%2F%2Ffonts.googleapis.com%2Fcss%3Ffamily%3DSarabun;fontSize=12;fontColor=#220607;labelBackgroundColor=none;fillColor=#FAF5F0;" vertex="1" parent="1">
          <mxGeometry x="596" y="170" width="150" height="230" as="geometry" />
        </mxCell>
        <mxCell id="ZalriifZYH_jLImGx8Wc-23" style="edgeStyle=orthogonalEdgeStyle;rounded=0;orthogonalLoop=1;jettySize=auto;html=1;exitX=1;exitY=0.5;exitDx=0;exitDy=0;fontFamily=Sarabun;fontSource=https%3A%2F%2Ffonts.googleapis.com%2Fcss%3Ffamily%3DSarabun;fontSize=12;fontColor=#220607;labelBackgroundColor=none;strokeWidth=2;" edge="1" parent="1" source="ZalriifZYH_jLImGx8Wc-21">
          <mxGeometry relative="1" as="geometry">
            <mxPoint x="370" y="635" as="targetPoint" />
          </mxGeometry>
        </mxCell>
        <mxCell id="ZalriifZYH_jLImGx8Wc-21" value="&lt;font style=&quot;font-size: 18px;&quot;&gt;Hybrid&lt;br&gt;kNN-GRU&lt;/font&gt;" style="rounded=0;whiteSpace=wrap;html=1;fontFamily=Sarabun;fontSource=https%3A%2F%2Ffonts.googleapis.com%2Fcss%3Ffamily%3DSarabun;labelBackgroundColor=none;fillColor=#FAF5F0;strokeColor=#220607;fontColor=#220607;strokeWidth=2;fontStyle=1;fontSize=18;" vertex="1" parent="1">
          <mxGeometry x="200" y="600" width="120" height="70" as="geometry" />
        </mxCell>
        <mxCell id="ZalriifZYH_jLImGx8Wc-22" value="User Parameters" style="verticalLabelPosition=bottom;verticalAlign=top;html=1;strokeWidth=2;shape=mxgraph.arrows2.arrow;dy=0.6;dx=40;notch=0;rounded=0;strokeColor=#220607;align=center;fontFamily=Sarabun;fontSource=https%3A%2F%2Ffonts.googleapis.com%2Fcss%3Ffamily%3DSarabun;fontSize=12;fontColor=#220607;labelBackgroundColor=none;fillColor=#FAF5F0;" vertex="1" parent="1">
          <mxGeometry x="90" y="600" width="100" height="70" as="geometry" />
        </mxCell>
        <mxCell id="ZalriifZYH_jLImGx8Wc-24" value="Candidate Items" style="swimlane;whiteSpace=wrap;html=1;rounded=0;strokeColor=#220607;align=center;verticalAlign=middle;fontFamily=Sarabun;fontSource=https%3A%2F%2Ffonts.googleapis.com%2Fcss%3Ffamily%3DSarabun;fontSize=12;fontColor=#220607;labelBackgroundColor=none;fillColor=#FAF5F0;" vertex="1" parent="1">
          <mxGeometry x="370" y="570" width="300" height="120" as="geometry" />
        </mxCell>
        <mxCell id="ZalriifZYH_jLImGx8Wc-25" value="" style="childLayout=tableLayout;recursiveResize=0;shadow=0;fillColor=none;rounded=0;strokeColor=#220607;align=center;verticalAlign=middle;fontFamily=Sarabun;fontSource=https%3A%2F%2Ffonts.googleapis.com%2Fcss%3Ffamily%3DSarabun;fontSize=12;fontColor=#220607;labelBackgroundColor=none;" vertex="1" parent="ZalriifZYH_jLImGx8Wc-24">
          <mxGeometry x="30" y="45" width="240" height="47" as="geometry" />
        </mxCell>
        <mxCell id="ZalriifZYH_jLImGx8Wc-26" value="" style="shape=tableRow;horizontal=0;startSize=0;swimlaneHead=0;swimlaneBody=0;top=0;left=0;bottom=0;right=0;dropTarget=0;collapsible=0;recursiveResize=0;expand=0;fontStyle=0;fillColor=none;strokeColor=inherit;rounded=0;align=center;verticalAlign=middle;fontFamily=Sarabun;fontSource=https%3A%2F%2Ffonts.googleapis.com%2Fcss%3Ffamily%3DSarabun;fontSize=12;fontColor=#220607;labelBackgroundColor=none;" vertex="1" parent="ZalriifZYH_jLImGx8Wc-25">
          <mxGeometry width="240" height="47" as="geometry" />
        </mxCell>
        <mxCell id="ZalriifZYH_jLImGx8Wc-27" value="I&lt;sub&gt;1&lt;/sub&gt;" style="connectable=0;recursiveResize=0;strokeColor=inherit;fillColor=none;align=center;whiteSpace=wrap;html=1;rounded=0;verticalAlign=middle;fontFamily=Times New Roman;fontSize=16;fontColor=#220607;labelBackgroundColor=none;fontStyle=3" vertex="1" parent="ZalriifZYH_jLImGx8Wc-26">
          <mxGeometry width="60" height="47" as="geometry">
            <mxRectangle width="60" height="47" as="alternateBounds" />
          </mxGeometry>
        </mxCell>
        <mxCell id="ZalriifZYH_jLImGx8Wc-28" value="I&lt;sub&gt;4&lt;/sub&gt;" style="connectable=0;recursiveResize=0;strokeColor=inherit;fillColor=none;align=center;whiteSpace=wrap;html=1;rounded=0;verticalAlign=middle;fontFamily=Times New Roman;fontSize=16;fontColor=#220607;labelBackgroundColor=none;fontStyle=3" vertex="1" parent="ZalriifZYH_jLImGx8Wc-26">
          <mxGeometry x="60" width="60" height="47" as="geometry">
            <mxRectangle width="60" height="47" as="alternateBounds" />
          </mxGeometry>
        </mxCell>
        <mxCell id="ZalriifZYH_jLImGx8Wc-29" value="I&lt;sub&gt;9&lt;/sub&gt;" style="connectable=0;recursiveResize=0;strokeColor=inherit;fillColor=none;align=center;whiteSpace=wrap;html=1;rounded=0;verticalAlign=middle;fontFamily=Times New Roman;fontSize=16;fontColor=#220607;labelBackgroundColor=none;fontStyle=3" vertex="1" parent="ZalriifZYH_jLImGx8Wc-26">
          <mxGeometry x="120" width="60" height="47" as="geometry">
            <mxRectangle width="60" height="47" as="alternateBounds" />
          </mxGeometry>
        </mxCell>
        <mxCell id="ZalriifZYH_jLImGx8Wc-38" value="..." style="connectable=0;recursiveResize=0;strokeColor=inherit;fillColor=none;align=center;whiteSpace=wrap;html=1;rounded=0;verticalAlign=middle;fontFamily=Times New Roman;fontSize=16;fontColor=#220607;labelBackgroundColor=none;fontStyle=3" vertex="1" parent="ZalriifZYH_jLImGx8Wc-26">
          <mxGeometry x="180" width="60" height="47" as="geometry">
            <mxRectangle width="60" height="47" as="alternateBounds" />
          </mxGeometry>
        </mxCell>
        <mxCell id="ZalriifZYH_jLImGx8Wc-39" value="Remove Redundant&lt;div&gt;Items&lt;/div&gt;" style="verticalLabelPosition=bottom;verticalAlign=top;html=1;strokeWidth=2;shape=mxgraph.arrows2.arrow;dy=0.6;dx=40;notch=0;rounded=0;strokeColor=#220607;align=center;fontFamily=Sarabun;fontSource=https%3A%2F%2Ffonts.googleapis.com%2Fcss%3Ffamily%3DSarabun;fontSize=12;fontColor=#220607;labelBackgroundColor=none;fillColor=#FAF5F0;" vertex="1" parent="1">
          <mxGeometry x="680" y="600" width="100" height="70" as="geometry" />
        </mxCell>
        <mxCell id="ZalriifZYH_jLImGx8Wc-40" value="Ranking Algorithm" style="rounded=0;whiteSpace=wrap;html=1;fontFamily=Sarabun;fontSource=https%3A%2F%2Ffonts.googleapis.com%2Fcss%3Ffamily%3DSarabun;labelBackgroundColor=none;fillColor=#FAF5F0;strokeColor=#220607;fontColor=#220607;strokeWidth=2;fontStyle=1" vertex="1" parent="1">
          <mxGeometry x="790" y="615" width="120" height="40" as="geometry" />
        </mxCell>
      </root>
    </mxGraphModel>
  </diagram>
</mxfile>
